{
	"asset":{
		"generator":"Khronos glTF Blender I/O v3.6.28",
		"version":"2.0"
	},
	"scene":0,
	"scenes":[
		{
			"name":"Scene",
			"nodes":[
				0,
				1
			]
		}
	],
	"nodes":[
		{
			"mesh":0,
			"name":"Chair"
		},
		{
			"mesh":1,
			"name":"Cushion"
		}
	],
	"meshes":[
		{
			"name":"Cube.002",
			"primitives":[
				{
					"attributes":{
						"POSITION":0,
						"NORMAL":1,
						"TEXCOORD_0":2
					},
					"indices":3
				}
			]
		},
		{
			"name":"Cube.003",
			"primitives":[
				{
					"attributes":{
						"POSITION":4,
						"NORMAL":5,
						"TEXCOORD_0":6
					},
					"indices":7
				}
			]
		}
	],
	"accessors":[
		{
			"bufferView":0,
			"componentType":5126,
			"count":14401,
			"max":[
				1.9633502960205078,
				6.239095687866211,
				-2.8799970149993896
			],
			"min":[
				-1.9633502960205078,
				0.016381263732910156,
				-6.807054042816162
			],
			"type":"VEC3"
		},
		{
			"bufferView":1,
			"componentType":5126,
			"count":14401,
			"type":"VEC3"
		},
		{
			"bufferView":2,
			"componentType":5126,
			"count":14401,
			"type":"VEC2"
		},
		{
			"bufferView":3,
			"componentType":5123,
			"count":79680,
			"type":"SCALAR"
		},
		{
			"bufferView":4,
			"componentType":5126,
			"count":19906,
			"max":[
				1.975757122039795,
				3.658118963241577,
				-2.863949775695801
			],
			"min":[
				-1.314377784729004,
				3.150367498397827,
				-6.781893253326416
			],
			"type":"VEC3"
		},
		{
			"bufferView":5,
			"componentType":5126,
			"count":19906,
			"type":"VEC3"
		},
		{
			"bufferView":6,
			"componentType":5126,
			"count":19906,
			"type":"VEC2"
		},
		{
			"bufferView":7,
			"componentType":5123,
			"count":112704,
			"type":"SCALAR"
		}
	],
	"bufferViews":[
		{
			"buffer":0,
			"byteLength":172812,
			"byteOffset":0,
			"target":34962
		},
		{
			"buffer":0,
			"byteLength":172812,
			"byteOffset":172812,
			"target":34962
		},
		{
			"buffer":0,
			"byteLength":115208,
			"byteOffset":345624,
			"target":34962
		},
		{
			"buffer":0,
			"byteLength":159360,
			"byteOffset":460832,
			"target":34963
		},
		{
			"buffer":0,
			"byteLength":238872,
			"byteOffset":620192,
			"target":34962
		},
		{
			"buffer":0,
			"byteLength":238872,
			"byteOffset":859064,
			"target":34962
		},
		{
			"buffer":0,
			"byteLength":159248,
			"byteOffset":1097936,
			"target":34962
		},
		{
			"buffer":0,
			"byteLength":225408,
			"byteOffset":1257184,
			"target":34963
		}
	],
	"buffers":[
		{
			"byteLength":1482592,
			"uri":"data:application/octet-stream;base64,"
		}
	]
}
